# xmcd CD database file
# Copyright (C) 1997 Ti Kan
# 
# Track frame offsets:
#     150
#     16200
#     32425
#     52012
#     70462
#     87975
#     103025
#     118537
#     128862
#     143700
#     159150
#     172312
#     206737
# 
# Disc length: 2979 seconds
# 
# Revision: 1
# Processed by: cddbd v1.4b41PL1 Copyright (c) Steve Scherf et al.
# Submitted via: DiscPlay 4.0.3
# 
DISCID=b40ba10d
DTITLE=Richard "King Biscuit Boy" Newell - Urban Blues Re:Newell
DYEAR=1900
DGENRE=
TTITLE0=Now I'm Good
TTITLE1=Mighty Crazy
TTITLE2=Before We Think
TTITLE3=Cracked Up Over You
TTITLE4=Glide N' Slide
TTITLE5=Comin' Around The Corner
TTITLE6=Too Poor To Die
TTITLE7=Down On The Farm
TTITLE8=That's No Lie
TTITLE9=Chills and Fever
TTITLE10=Fire
TTITLE11=My Love Lies Bleeding
TTITLE12=Achin' Head
EXTD=
EXTT0=
EXTT1=
EXTT2=
EXTT3=
EXTT4=
EXTT5=
EXTT6=
EXTT7=
EXTT8=
EXTT9=
EXTT10=
EXTT11=
EXTT12=
PLAYORDER=
